<svg width="169" height="31" viewBox="0 0 169 31" fill="none" xmlns="http://www.w3.org/2000/svg">
<g clip-path="url(#clip0_62_26)">
<path d="M0 0V14.1825H9.79918V0H0ZM7.33449 10.6333H2.44948V3.53382H7.33322V10.6333H7.33449Z" fill="#9B29C1"/>
<path d="M4.20581 16.8022V20.3514H6.30174V31H7.3345H9.79919V20.3361V16.8022H4.20581Z" fill="#9B29C1"/>
<path d="M19.4134 0H11.7253V3.54912H19.4134V0Z" fill="white"/>
<path d="M29.7664 0H27.0559H22.9109V3.54912H27.0559V7.74968H30.5533V0H29.7664Z" fill="#FF9A60"/>
<path d="M16.6091 12.4004H11.7253V18.5999H16.6091V12.4004Z" fill="#FF595D"/>
<path d="M27.0394 11.3001V25.5234C27.0394 26.5789 26.1878 27.4356 25.1386 27.4356H11.7241V31H26.7505C28.8502 31 30.552 29.2879 30.552 27.1755V11.2988H27.0394V11.3001Z" fill="white"/>
<path d="M169 20.4497H166.611V22.8528H169V20.4497Z" fill="#9B29C1"/>
<path d="M104.841 9.06787H102.452V11.4709H104.841V9.06787Z" fill="white"/>
<path d="M55.9502 22.8362H53.3436L52.4262 14.9501L49.3418 21.3956H47.3409L44.2199 14.9501L43.3024 22.8362H40.6958L42.2557 10.1108H44.4226L48.3332 18.4597L52.207 10.1108H54.4106L55.9528 22.8362H55.9502Z" fill="white"/>
<path d="M64.3226 14.2106H66.7278V22.8361H64.3226V21.5982C63.7537 22.4842 62.6525 23.0579 61.4955 23.0579C59.1272 23.0579 57.3645 21.2107 57.3645 18.5323C57.3645 15.8538 59.0904 13.9888 61.55 13.9888C62.6512 13.9888 63.7537 14.4694 64.3226 15.3554V14.2106ZM64.2491 18.5323C64.2491 17.2205 63.2024 16.2414 62.0088 16.2414C60.8151 16.2414 59.8241 17.2753 59.8241 18.5323C59.8241 19.7892 60.7606 20.804 62.0278 20.804C63.2949 20.804 64.2491 19.7701 64.2491 18.5323Z" fill="white"/>
<path d="M75.4103 14.2654L74.8591 16.5741C74.3446 16.2975 73.9227 16.2605 73.6287 16.2605C72.3982 16.2605 71.5543 17.4244 71.5543 19.881V22.8361H69.1492V14.2106H71.5353V16.0578C72.013 14.6173 72.9862 13.9888 74.0507 13.9888C74.5094 13.9888 75.0239 14.0627 75.4091 14.2654H75.4103Z" fill="white"/>
<path d="M85.1044 22.8359H82.1113L79.1004 19.1045V22.8359H76.6953V9.51904H79.1004V16.8519L81.2673 14.2104H84.3517L81.0101 18.0158L85.1044 22.8359Z" fill="white"/>
<path d="M94.0635 19.3072H87.6199C87.8771 20.3232 88.6843 20.9134 89.8235 20.9134C90.7042 20.9134 91.5494 20.5068 92.0816 19.8974L93.4768 21.3201C92.6683 22.4101 91.1819 23.0564 89.6765 23.0564C87.0332 23.0564 85.1045 21.1914 85.1045 18.5308C85.1045 15.8702 87.2156 13.9873 89.6575 13.9873C92.0994 13.9873 94.1193 15.7415 94.1193 18.3829C94.1193 18.6226 94.1015 18.9183 94.0648 19.3059L94.0635 19.3072ZM91.6951 17.7378C91.6216 16.7218 90.7954 16.0755 89.712 16.0755C88.7211 16.0755 87.8758 16.5739 87.6186 17.7378H91.6939H91.6951Z" fill="white"/>
<path d="M100.892 14.2107V16.0949H99.0752V22.8362H96.6701V16.0949H95.1089V14.2107H96.6701V11.0708H99.0752V14.2107H100.892Z" fill="white"/>
<path d="M102.452 22.8359V14.2104H104.857V22.8359H102.452Z" fill="white"/>
<path d="M115.653 18.1077V22.8361H113.247V18.2365C113.247 16.8877 112.439 16.2784 111.614 16.2784C110.789 16.2784 109.687 16.7398 109.687 18.3104V22.8361H107.281V14.2106H109.687V15.6142C110.091 14.4872 111.43 13.9888 112.256 13.9888C114.497 13.9888 115.672 15.5211 115.653 18.1077Z" fill="white"/>
<path d="M124.41 14.4691H126.815V22.0237C126.815 25.7921 124.925 27.5463 121.895 27.5463C120.059 27.5463 118.462 26.5124 117.727 24.9048L119.728 24.0367C120.095 24.8309 120.976 25.3854 121.895 25.3854C123.437 25.3854 124.41 24.5173 124.41 22.2825V22.0428C123.785 22.8919 122.611 23.3177 121.656 23.3177C119.453 23.3177 117.452 21.5444 117.452 18.7742C117.452 16.004 119.453 14.2485 121.656 14.2485C122.63 14.2485 123.787 14.6552 124.41 15.5042V14.4704V14.4691ZM124.337 18.7729C124.337 17.4433 123.235 16.5012 122.115 16.5012C120.904 16.5012 119.894 17.4981 119.894 18.7729C119.894 20.0477 120.904 21.0638 122.115 21.0638C123.327 21.0638 124.337 20.0847 124.337 18.7729Z" fill="white"/>
<path d="M141.978 18.1078V22.8361H139.573V18.2556C139.573 16.9069 138.765 16.2796 137.94 16.2796C137.115 16.2796 136.013 16.7603 136.013 18.3117V22.8374H133.607V9.52051H136.013V15.5785C136.38 14.4707 137.756 13.9901 138.582 13.9901C140.823 13.9901 141.997 15.5224 141.978 18.109V18.1078Z" fill="white"/>
<path d="M150.148 14.2104H152.553V22.8359H150.148V21.4324C149.781 22.5593 148.422 23.0578 147.578 23.0578C145.338 23.0578 144.163 21.5433 144.182 18.9579V14.2117H146.587V18.8292C146.587 20.1779 147.394 20.8051 148.221 20.8051C149.047 20.8051 150.148 20.3245 150.148 18.7731V14.2104Z" fill="white"/>
<path d="M164.339 18.5129C164.339 21.3023 162.338 23.0564 160.135 23.0564C159.162 23.0564 157.987 22.6498 157.381 21.7638V27.0645H154.976V14.2091H157.381V15.2621C157.987 14.394 159.162 13.9873 160.135 13.9873C162.338 13.9873 164.339 15.7606 164.339 18.5129ZM161.88 18.5321C161.88 17.2572 160.889 16.2412 159.676 16.2412C158.463 16.2412 157.455 17.2203 157.455 18.5321C157.455 19.8439 158.556 20.8038 159.676 20.8038C160.888 20.8038 161.88 19.8069 161.88 18.5321Z" fill="white"/>
</g>
<defs>
<clipPath id="clip0_62_26">
<rect width="169" height="31" fill="white"/>
</clipPath>
</defs>
</svg>
