<svg xmlns="http://www.w3.org/2000/svg" xmlns:xlink="http://www.w3.org/1999/xlink" width="218" zoomAndPan="magnify" viewBox="0 0 163.5 30.000001" height="40" preserveAspectRatio="xMidYMid meet" version="1.2"><defs><clipPath id="ba7e6f7bf5"><path d="M 12.445312 1.84375 L 21 1.84375 L 21 14 L 12.445312 14 Z M 12.445312 1.84375 "/></clipPath><clipPath id="7f0cd5d902"><path d="M 15 15 L 21 15 L 21 27.167969 L 15 27.167969 Z M 15 15 "/></clipPath><clipPath id="ff45849a40"><path d="M 22 1.84375 L 29 1.84375 L 29 5 L 22 5 Z M 22 1.84375 "/></clipPath><clipPath id="1af1bbba93"><path d="M 31 1.84375 L 38 1.84375 L 38 9 L 31 9 Z M 31 1.84375 "/></clipPath><clipPath id="5e7f3715bd"><path d="M 22 11 L 38 11 L 38 27.167969 L 22 27.167969 Z M 22 11 "/></clipPath><clipPath id="a512a110f1"><path d="M 148 18 L 150.519531 18 L 150.519531 21 L 148 21 Z M 148 18 "/></clipPath></defs><g id="58a67ce5ff"><g clip-rule="nonzero" clip-path="url(#ba7e6f7bf5)"><path style=" stroke:none;fill-rule:nonzero;fill:#9b29c1;fill-opacity:1;" d="M 12.445312 1.84375 L 12.445312 13.429688 L 20.453125 13.429688 L 20.453125 1.84375 Z M 18.4375 10.53125 L 14.449219 10.53125 L 14.449219 4.730469 L 18.4375 4.730469 Z M 18.4375 10.53125 "/></g><g clip-rule="nonzero" clip-path="url(#7f0cd5d902)"><path style=" stroke:none;fill-rule:nonzero;fill:#9b29c1;fill-opacity:1;" d="M 15.882812 15.570312 L 15.882812 18.46875 L 17.59375 18.46875 L 17.59375 27.167969 L 20.453125 27.167969 L 20.453125 15.570312 Z M 15.882812 15.570312 "/></g><g clip-rule="nonzero" clip-path="url(#ff45849a40)"><path style=" stroke:none;fill-rule:nonzero;fill:#ff9a60;fill-opacity:1;" d="M 28.308594 1.84375 L 22.027344 1.84375 L 22.027344 4.742188 L 28.308594 4.742188 Z M 28.308594 1.84375 "/></g><g clip-rule="nonzero" clip-path="url(#1af1bbba93)"><path style=" stroke:none;fill-rule:nonzero;fill:#ff9a60;fill-opacity:1;" d="M 36.765625 1.84375 L 31.164062 1.84375 L 31.164062 4.742188 L 34.550781 4.742188 L 34.550781 8.175781 L 37.410156 8.175781 L 37.410156 1.84375 Z M 36.765625 1.84375 "/></g><path style=" stroke:none;fill-rule:nonzero;fill:#ff595d;fill-opacity:1;" d="M 26.015625 11.972656 L 22.027344 11.972656 L 22.027344 17.039062 L 26.015625 17.039062 Z M 26.015625 11.972656 "/><g clip-rule="nonzero" clip-path="url(#5e7f3715bd)"><path style=" stroke:none;fill-rule:nonzero;fill:#ff9a60;fill-opacity:1;" d="M 34.539062 11.074219 L 34.539062 22.695312 C 34.539062 23.558594 33.84375 24.257812 32.984375 24.257812 L 22.023438 24.257812 L 22.023438 27.167969 L 34.300781 27.167969 C 36.015625 27.167969 37.40625 25.769531 37.40625 24.046875 L 37.40625 11.074219 Z M 34.539062 11.074219 "/></g><g clip-rule="nonzero" clip-path="url(#a512a110f1)"><path style=" stroke:none;fill-rule:nonzero;fill:#9b29c1;fill-opacity:1;" d="M 150.519531 18.550781 L 148.566406 18.550781 L 148.566406 20.511719 L 150.519531 20.511719 Z M 150.519531 18.550781 "/></g><path style=" stroke:none;fill-rule:nonzero;fill:#ff9a60;fill-opacity:1;" d="M 98.101562 9.25 L 96.148438 9.25 L 96.148438 11.214844 L 98.101562 11.214844 Z M 98.101562 9.25 "/><path style=" stroke:none;fill-rule:nonzero;fill:#ff9a60;fill-opacity:1;" d="M 58.15625 20.5 L 56.027344 20.5 L 55.277344 14.058594 L 52.757812 19.324219 L 51.125 19.324219 L 48.574219 14.058594 L 47.824219 20.5 L 45.695312 20.5 L 46.96875 10.101562 L 48.738281 10.101562 L 51.933594 16.925781 L 55.101562 10.101562 L 56.898438 10.101562 L 58.160156 20.5 Z M 58.15625 20.5 "/><path style=" stroke:none;fill-rule:nonzero;fill:#ff9a60;fill-opacity:1;" d="M 65 13.453125 L 66.964844 13.453125 L 66.964844 20.5 L 65 20.5 L 65 19.488281 C 64.535156 20.210938 63.632812 20.679688 62.6875 20.679688 C 60.753906 20.679688 59.3125 19.171875 59.3125 16.984375 C 59.3125 14.796875 60.722656 13.273438 62.734375 13.273438 C 63.632812 13.273438 64.535156 13.664062 65 14.386719 Z M 64.9375 16.984375 C 64.9375 15.910156 64.082031 15.113281 63.109375 15.113281 C 62.132812 15.113281 61.324219 15.957031 61.324219 16.984375 C 61.324219 18.011719 62.089844 18.839844 63.125 18.839844 C 64.160156 18.839844 64.9375 17.996094 64.9375 16.984375 Z M 64.9375 16.984375 "/><path style=" stroke:none;fill-rule:nonzero;fill:#ff9a60;fill-opacity:1;" d="M 74.058594 13.496094 L 73.605469 15.382812 C 73.1875 15.15625 72.839844 15.128906 72.601562 15.128906 C 71.597656 15.128906 70.90625 16.078125 70.90625 18.085938 L 70.90625 20.5 L 68.941406 20.5 L 68.941406 13.453125 L 70.890625 13.453125 L 70.890625 14.960938 C 71.28125 13.785156 72.078125 13.273438 72.945312 13.273438 C 73.320312 13.273438 73.742188 13.332031 74.054688 13.496094 Z M 74.058594 13.496094 "/><path style=" stroke:none;fill-rule:nonzero;fill:#ff9a60;fill-opacity:1;" d="M 81.976562 20.5 L 79.53125 20.5 L 77.070312 17.453125 L 77.070312 20.5 L 75.105469 20.5 L 75.105469 9.621094 L 77.070312 9.621094 L 77.070312 15.609375 L 78.84375 13.453125 L 81.363281 13.453125 L 78.632812 16.5625 Z M 81.976562 20.5 "/><path style=" stroke:none;fill-rule:nonzero;fill:#ff9a60;fill-opacity:1;" d="M 89.296875 17.617188 L 84.03125 17.617188 C 84.242188 18.445312 84.902344 18.929688 85.832031 18.929688 C 86.550781 18.929688 87.242188 18.597656 87.675781 18.097656 L 88.816406 19.261719 C 88.15625 20.152344 86.941406 20.679688 85.710938 20.679688 C 83.550781 20.679688 81.976562 19.15625 81.976562 16.984375 C 81.976562 14.808594 83.703125 13.269531 85.695312 13.269531 C 87.691406 13.269531 89.34375 14.703125 89.34375 16.863281 C 89.34375 17.058594 89.328125 17.300781 89.296875 17.617188 Z M 87.363281 16.335938 C 87.300781 15.503906 86.625 14.976562 85.742188 14.976562 C 84.933594 14.976562 84.242188 15.382812 84.03125 16.335938 Z M 87.363281 16.335938 "/><path style=" stroke:none;fill-rule:nonzero;fill:#ff9a60;fill-opacity:1;" d="M 94.875 13.453125 L 94.875 14.992188 L 93.390625 14.992188 L 93.390625 20.5 L 91.425781 20.5 L 91.425781 14.992188 L 90.152344 14.992188 L 90.152344 13.453125 L 91.425781 13.453125 L 91.425781 10.886719 L 93.390625 10.886719 L 93.390625 13.453125 Z M 94.875 13.453125 "/><path style=" stroke:none;fill-rule:nonzero;fill:#ff9a60;fill-opacity:1;" d="M 96.148438 13.453125 L 98.113281 13.453125 L 98.113281 20.5 L 96.148438 20.5 Z M 96.148438 13.453125 "/><path style=" stroke:none;fill-rule:nonzero;fill:#ff9a60;fill-opacity:1;" d="M 106.933594 16.636719 L 106.933594 20.5 L 104.96875 20.5 L 104.96875 16.742188 C 104.96875 15.640625 104.308594 15.140625 103.636719 15.140625 C 102.960938 15.140625 102.0625 15.519531 102.0625 16.800781 L 102.0625 20.5 L 100.09375 20.5 L 100.09375 13.453125 L 102.0625 13.453125 L 102.0625 14.601562 C 102.390625 13.679688 103.484375 13.273438 104.160156 13.273438 C 105.992188 13.273438 106.949219 14.523438 106.933594 16.636719 Z M 106.933594 16.636719 "/><path style=" stroke:none;fill-rule:nonzero;fill:#ff9a60;fill-opacity:1;" d="M 114.089844 13.664062 L 116.054688 13.664062 L 116.054688 19.835938 C 116.054688 22.914062 114.511719 24.347656 112.035156 24.347656 C 110.535156 24.347656 109.230469 23.503906 108.628906 22.191406 L 110.265625 21.480469 C 110.5625 22.128906 111.285156 22.582031 112.035156 22.582031 C 113.292969 22.582031 114.089844 21.875 114.089844 20.046875 L 114.089844 19.851562 C 113.578125 20.546875 112.621094 20.894531 111.839844 20.894531 C 110.039062 20.894531 108.40625 19.445312 108.40625 17.179688 C 108.40625 14.917969 110.039062 13.484375 111.839844 13.484375 C 112.636719 13.484375 113.582031 13.816406 114.089844 14.511719 Z M 114.03125 17.179688 C 114.03125 16.09375 113.128906 15.324219 112.214844 15.324219 C 111.226562 15.324219 110.398438 16.140625 110.398438 17.179688 C 110.398438 18.222656 111.226562 19.050781 112.214844 19.050781 C 113.203125 19.050781 114.03125 18.253906 114.03125 17.179688 Z M 114.03125 17.179688 "/><path style=" stroke:none;fill-rule:nonzero;fill:#ff9a60;fill-opacity:1;" d="M 128.441406 16.636719 L 128.441406 20.5 L 126.476562 20.5 L 126.476562 16.757812 C 126.476562 15.65625 125.816406 15.144531 125.144531 15.144531 C 124.46875 15.144531 123.570312 15.535156 123.570312 16.804688 L 123.570312 20.5 L 121.601562 20.5 L 121.601562 9.621094 L 123.570312 9.621094 L 123.570312 14.570312 C 123.867188 13.664062 124.992188 13.273438 125.667969 13.273438 C 127.5 13.273438 128.457031 14.523438 128.441406 16.636719 Z M 128.441406 16.636719 "/><path style=" stroke:none;fill-rule:nonzero;fill:#ff9a60;fill-opacity:1;" d="M 135.117188 13.453125 L 137.082031 13.453125 L 137.082031 20.5 L 135.117188 20.5 L 135.117188 19.351562 C 134.816406 20.273438 133.707031 20.679688 133.019531 20.679688 C 131.1875 20.679688 130.226562 19.445312 130.242188 17.332031 L 130.242188 13.453125 L 132.207031 13.453125 L 132.207031 17.226562 C 132.207031 18.328125 132.867188 18.839844 133.542969 18.839844 C 134.21875 18.839844 135.117188 18.449219 135.117188 17.179688 Z M 135.117188 13.453125 "/><path style=" stroke:none;fill-rule:nonzero;fill:#ff9a60;fill-opacity:1;" d="M 146.710938 16.96875 C 146.710938 19.246094 145.078125 20.679688 143.277344 20.679688 C 142.480469 20.679688 141.523438 20.347656 141.027344 19.625 L 141.027344 23.953125 L 139.0625 23.953125 L 139.0625 13.453125 L 141.027344 13.453125 L 141.027344 14.3125 C 141.523438 13.601562 142.480469 13.269531 143.277344 13.269531 C 145.078125 13.269531 146.710938 14.71875 146.710938 16.96875 Z M 144.703125 16.984375 C 144.703125 15.941406 143.894531 15.113281 142.902344 15.113281 C 141.910156 15.113281 141.085938 15.910156 141.085938 16.984375 C 141.085938 18.054688 141.988281 18.839844 142.902344 18.839844 C 143.890625 18.839844 144.703125 18.023438 144.703125 16.984375 Z M 144.703125 16.984375 "/></g></svg>